HIERARCHY
ROOT Hips
{
	OFFSET 0.000000 0.000000 0.000000
	CHANNELS 6 Xposition Yposition Zposition Zrotation Yrotation Xrotation 
	JOINT LHipJoint
	{
		OFFSET 0.000000 0.000000 0.000000
		CHANNELS 3 Zrotation Yrotation Xrotation
		JOINT LeftUpLeg
		{
			OFFSET 1.363060 -1.794630 0.839290
			CHANNELS 3 Zrotation Yrotation Xrotation
			JOINT LeftLeg
			{
				OFFSET 2.448110 -6.726130 0.000000
				CHANNELS 3 Zrotation Yrotation Xrotation
				JOINT LeftFoot
				{
					OFFSET 2.562200 -7.039590 0.000000
					CHANNELS 3 Zrotation Yrotation Xrotation
					JOINT LeftToeBase
					{
						OFFSET 0.157640 -0.433110 2.322550
						CHANNELS 3 Zrotation Yrotation Xrotation
						End Site
						{
							OFFSET 0.000000 0.000000 0.000000
						}
					}
				}
			}
		}
	}
	JOINT RHipJoint
	{
		OFFSET 0.000000 0.000000 0.000000
		CHANNELS 3 Zrotation Yrotation Xrotation
		JOINT RightUpLeg
		{
			OFFSET -1.305520 -1.794630 0.839290
			CHANNELS 3 Zrotation Yrotation Xrotation
			JOINT RightLeg
			{
				OFFSET -2.542530 -6.985550 0.000000
				CHANNELS 3 Zrotation Yrotation Xrotation
				JOINT RightFoot
				{
					OFFSET -2.568260 -7.056230 0.000000
					CHANNELS 3 Zrotation Yrotation Xrotation
					JOINT RightToeBase
					{
						OFFSET -0.164730 -0.452590 2.363150
						CHANNELS 3 Zrotation Yrotation Xrotation
						End Site
						{
							OFFSET 0.000000 0.000000 0.000000
						}
					}
				}
			}
		}
	}
	JOINT LowerBack
	{
		OFFSET 0.000000 0.000000 0.000000
		CHANNELS 3 Zrotation Yrotation Xrotation
		JOINT Spine
		{
			OFFSET 0.028270 2.035590 -0.193380
			CHANNELS 3 Zrotation Yrotation Xrotation
			JOINT Spine1
			{
				OFFSET 0.056720 2.048850 -0.042750
				CHANNELS 3 Zrotation Yrotation Xrotation
				JOINT Neck
				{
					OFFSET 0.000000 0.000000 0.000000
					CHANNELS 3 Zrotation Yrotation Xrotation
					JOINT Neck1
					{
						OFFSET -0.054170 1.746240 0.172020
						CHANNELS 3 Zrotation Yrotation Xrotation
						JOINT Head
						{
							OFFSET 0.104070 1.761360 -0.123970
							CHANNELS 3 Zrotation Yrotation Xrotation
							End Site
							{
								OFFSET 0.000000 0.000000 0.000000
							}
						}
					}
				}
				JOINT LeftShoulder
				{
					OFFSET 0.000000 0.000000 0.000000
					CHANNELS 3 Zrotation Yrotation Xrotation
					JOINT LeftArm
					{
						OFFSET 3.362410 1.200890 -0.311210
						CHANNELS 3 Zrotation Yrotation Xrotation
						JOINT LeftForeArm
						{
							OFFSET 4.983000 -0.000000 -0.000000
							CHANNELS 3 Zrotation Yrotation Xrotation
							JOINT LeftHand
							{
								OFFSET 3.483560 -0.000000 -0.000000
								CHANNELS 3 Zrotation Yrotation Xrotation
								JOINT LeftFingerBase
								{
									OFFSET 0.000000 0.000000 0.000000
									CHANNELS 3 Zrotation Yrotation Xrotation
									JOINT LeftHandIndex1
									{
										OFFSET 0.715260 -0.000000 -0.000000
										CHANNELS 3 Zrotation Yrotation Xrotation
										End Site
										{
											OFFSET 0.000000 0.000000 0.000000
										}
									}
								}
								JOINT LThumb
								{
									OFFSET 0.000000 0.000000 0.000000
									CHANNELS 3 Zrotation Yrotation Xrotation
									End Site
									{
										OFFSET 0.000000 0.000000 0.000000
									}
								}
							}
						}
					}
				}
				JOINT RightShoulder
				{
					OFFSET 0.000000 0.000000 0.000000
					CHANNELS 3 Zrotation Yrotation Xrotation
					JOINT RightArm
					{
						OFFSET -3.136600 1.374050 -0.404650
						CHANNELS 3 Zrotation Yrotation Xrotation
						JOINT RightForeArm
						{
							OFFSET -5.241900 -0.000000 -0.000000
							CHANNELS 3 Zrotation Yrotation Xrotation
							JOINT RightHand
							{
								OFFSET -3.444170 -0.000000 -0.000000
								CHANNELS 3 Zrotation Yrotation Xrotation
								JOINT RightFingerBase
								{
									OFFSET 0.000000 0.000000 0.000000
									CHANNELS 3 Zrotation Yrotation Xrotation
									JOINT RightHandIndex1
									{
										OFFSET -0.622530 -0.000000 -0.000000
										CHANNELS 3 Zrotation Yrotation Xrotation
										End Site
										{
											OFFSET 0.000000 0.000000 0.000000
										}
									}
								}
								JOINT RThumb
								{
									OFFSET 0.000000 0.000000 0.000000
									CHANNELS 3 Zrotation Yrotation Xrotation
									End Site
									{
										OFFSET 0.000000 0.000000 0.000000
									}
								}
							}
						}
					}
				}
			}
		}
	}
}
MOTION
Frames: 8
Frame Time: 0.008333
0.201644 17.241722 -14.484234 -1.634347 -6.112071 18.414146 0.811042 0.407898 0.678377 -18.420811 -2.255863 -29.807304 18.128631 20.054777 80.820419 -0.258683 14.356490 29.828497 0.335438 3.719715 10.289610 -1.782495 -0.738788 0.255121 22.194620 11.179469 -32.385011 -7.889593 -16.775136 54.024504 -0.864362 0.397118 -4.775321 -1.390971 7.456001 -21.076209 3.221165 0.871278 20.429486 1.544131 2.160591 -0.979323 2.999133 1.115386 -4.844799 -8.586523 -2.525780 -14.231755 2.834806 -1.551372 -4.160677 3.031207 -0.523113 2.794856 -4.727605 1.790599 -2.699561 -78.896376 4.456451 15.922639 30.626712 -42.505615 -17.359785 -0.764925 -3.006789 -18.332178 19.401976 9.518934 4.644199 -7.125000 0.000000 0.000000 -5.546146 42.905123 0.287457 2.629689 -0.602242 -1.708611 75.215404 6.321816 39.913824 -56.611598 52.185844 -38.259001 2.198349 0.508478 -18.984287 -21.679061 19.998031 -8.597909 7.125000 0.000000 0.000000 2.871563 -8.350535 2.431128
0.200980 17.225997 -14.366646 -1.988508 -6.516989 18.384655 0.899390 0.377119 0.605228 -18.029767 -2.022972 -30.983499 18.556101 20.173265 82.172258 -0.312306 14.050512 29.243371 0.320714 3.639744 10.065230 -1.773892 -0.758314 0.277112 22.564712 11.609350 -31.469566 -7.772727 -16.649881 53.630038 -0.828556 0.223247 -5.087817 -1.453013 7.617704 -21.559526 3.462485 1.085021 20.489152 1.553321 2.479435 -0.907087 2.795495 1.264427 -4.626790 -8.444044 -2.546556 -14.368648 2.725899 -1.609477 -4.287081 2.969020 -0.550540 2.753167 -4.819450 1.765243 -2.662820 -78.605245 4.010579 14.490866 28.812931 -41.265229 -15.864228 -0.801734 -3.066272 -19.219840 19.710917 9.451570 4.722697 -7.125000 0.000000 0.000000 -5.175538 42.895769 0.269471 2.665502 -0.589187 -1.684433 75.147733 7.607305 40.234673 -57.117676 52.349854 -38.742076 2.189816 0.468650 -18.686327 -21.272924 20.244926 -8.541728 7.125000 0.000000 0.000000 3.172190 -8.125404 2.697283
0.201382 17.213402 -14.243053 -2.355713 -6.992546 18.314180 0.979735 0.360950 0.555670 -17.619429 -1.733891 -32.126215 18.939076 20.264473 83.378081 -0.348102 13.736328 28.715614 0.310426 3.581239 9.901412 -1.759452 -0.786819 0.318490 22.940063 12.010421 -30.453658 -7.647168 -16.508781 53.196895 -0.804256 0.089317 -5.401813 -1.456490 7.627769 -21.589173 3.683933 1.293671 20.820334 1.553261 2.813919 -0.929598 2.579358 1.428984 -4.881686 -8.339837 -2.521696 -14.250418 2.640488 -1.612847 -4.330225 2.931803 -0.557499 2.727667 -4.895128 1.736585 -2.663778 -78.280596 4.240488 13.180450 27.560223 -40.316657 -14.880565 -0.834908 -3.094963 -19.826323 19.864067 9.225989 4.685283 -7.125000 0.000000 0.000000 -4.941178 42.674415 0.281466 2.674961 -0.557001 -1.672948 75.130115 8.492453 40.631359 -57.903452 52.580901 -39.489551 2.184273 0.446382 -18.543465 -20.913525 20.402889 -8.461907 7.125000 0.000000 0.000000 3.426269 -7.997536 2.922723
0.202107 17.201752 -14.117648 -2.726855 -7.489427 18.231333 1.057663 0.349191 0.513233 -17.203266 -1.427847 -33.258824 19.308620 20.347445 84.539824 -0.378517 13.419665 28.205176 0.301476 3.529215 9.755877 -1.743249 -0.818034 0.365722 23.317001 12.402795 -29.407421 -7.518985 -16.362899 52.752076 -0.783430 -0.032556 -5.716262 -1.442285 7.592056 -21.481862 3.899381 1.500784 21.233483 1.550410 3.153125 -0.980711 2.359448 1.598224 -5.279345 -8.247184 -2.483060 -14.055170 2.562171 -1.599693 -4.348233 2.902125 -0.558278 2.707053 -4.965926 1.706931 -2.676117 -77.945828 4.674407 11.906671 26.476897 -39.456180 -14.051436 -0.866986 -3.114359 -20.347921 19.970185 8.952644 4.612877 -7.125000 0.000000 0.000000 -4.747949 42.389061 0.302513 2.676464 -0.519040 -1.665295 75.127608 9.256743 41.050939 -58.773666 52.832185 -40.316845 2.179634 0.429416 -18.447425 -20.568237 20.534005 -8.374949 7.125000 0.000000 0.000000 3.666297 -7.899031 3.135873
0.202831 17.190102 -13.992242 -3.097998 -7.986308 18.148485 1.135591 0.337433 0.470797 -16.787103 -1.121804 -34.391432 19.678164 20.430417 85.701566 -0.408932 13.103003 27.694738 0.292526 3.477191 9.610342 -1.727047 -0.849249 0.412954 23.693940 12.795169 -28.361184 -7.390801 -16.217016 52.307257 -0.762605 -0.154428 -6.030710 -1.428081 7.556344 -21.374551 4.114830 1.707897 21.646631 1.547558 3.492330 -1.031824 2.139537 1.767465 -5.677005 -8.154531 -2.444423 -13.859923 2.483854 -1.586540 -4.366241 2.872446 -0.559058 2.686440 -5.036723 1.677276 -2.688455 -77.611061 5.108325 10.632891 25.393570 -38.595703 -13.222306 -0.899064 -3.133755 -20.869519 20.076303 8.679300 4.540470 -7.125000 0.000000 0.000000 -4.554720 42.103707 0.323559 2.677968 -0.481079 -1.657641 75.125101 10.021034 41.470519 -59.643880 53.083469 -41.144139 2.174994 0.412450 -18.351385 -20.222948 20.665120 -8.287992 7.125000 0.000000 0.000000 3.906324 -7.800526 3.349022
0.202517 17.180022 -13.868132 -3.416882 -8.424440 18.106337 1.215098 0.321360 0.424367 -16.384759 -0.893049 -35.567986 20.029376 20.510747 86.803670 -0.437095 12.794543 27.197597 0.279473 3.397041 9.386500 -1.711385 -0.878715 0.455987 24.028848 13.127216 -27.375761 -7.257662 -16.069796 51.843956 -0.735445 -0.298995 -6.340713 -1.422751 7.542949 -21.334291 4.297088 1.894206 21.974586 1.543618 3.789156 -1.068136 1.940507 1.915454 -5.970216 -8.072114 -2.410041 -13.743289 2.424036 -1.569960 -4.397037 2.852661 -0.554565 2.670026 -5.097819 1.655227 -2.698955 -77.274509 5.514267 9.420169 24.444699 -37.833787 -12.509571 -0.932624 -3.134909 -21.240139 20.109576 8.317727 4.409360 -7.125000 0.000000 0.000000 -4.425475 41.702774 0.360975 2.673305 -0.449252 -1.646715 75.130770 10.918013 41.866987 -60.532951 53.336845 -41.988899 2.175209 0.394125 -18.315137 -19.892753 20.849882 -8.227632 7.125000 0.000000 0.000000 4.138804 -7.639003 3.562699
0.199831 17.173533 -13.746983 -3.616317 -8.728287 18.157215 1.298214 0.295424 0.368808 -16.014002 -0.840952 -36.844987 20.338687 20.585040 87.769458 -0.460110 12.504831 26.730848 0.257041 3.252603 8.983673 -1.696958 -0.904181 0.489424 24.267686 13.321373 -26.529341 -7.113196 -15.919518 51.338412 -0.693810 -0.495433 -6.640556 -1.437706 7.580567 -21.447289 4.403483 2.032966 22.107810 1.537191 3.989116 -1.070619 1.789204 2.014866 -6.024687 -8.013093 -2.385383 -13.806346 2.406500 -1.545550 -4.457059 2.855490 -0.538023 2.663213 -5.136741 1.650561 -2.705249 -76.933880 5.856261 8.347011 23.803158 -37.297154 -12.062879 -0.969573 -3.094368 -21.265667 19.976347 7.754492 4.144071 -7.125000 0.000000 0.000000 -4.442480 41.037660 0.435807 2.654546 -0.431448 -1.628310 75.155127 12.118282 42.210625 -61.465125 53.595000 -42.873582 2.186518 0.372691 -18.415558 -19.597056 21.157265 -8.228065 7.125000 0.000000 0.000000 4.354032 -7.333439 3.777580
0.197145 17.167044 -13.625833 -3.815753 -9.032134 18.208094 1.381329 0.269488 0.313248 -15.643244 -0.788856 -38.121988 20.647998 20.659332 88.735245 -0.483126 12.215119 26.264100 0.234608 3.108164 8.580846 -1.682532 -0.929648 0.522860 24.506524 13.515530 -25.682921 -6.968729 -15.769240 50.832868 -0.652175 -0.691871 -6.940398 -1.452661 7.618185 -21.560287 4.509878 2.171725 22.241035 1.530764 4.189076 -1.073101 1.637902 2.114278 -6.079158 -7.954073 -2.360725 -13.869402 2.388964 -1.521141 -4.517082 2.858320 -0.521480 2.656400 -5.175663 1.645895 -2.711543 -76.593250 6.198255 7.273852 23.161618 -36.760522 -11.616188 -1.006523 -3.053827 -21.291194 19.843118 7.191256 3.878782 -7.125000 0.000000 0.000000 -4.459485 40.372546 0.510638 2.635788 -0.413643 -1.609904 75.179483 13.318551 42.554263 -62.397298 53.853154 -43.758266 2.197828 0.351257 -18.515980 -19.301360 21.464648 -8.228498 7.125000 0.000000 0.000000 4.569260 -7.027876 3.992462
